-------------------------------------------------
AVC (Advanced Video Coding) H264
High Efficiency Dolby Digital Surround
-------------------------------------------------

Separate Greek Subtitles

IMDB 
http://www.imdb.com/title/tt0993842/


PLOT
A 16-year-old who was raised by her father to be the perfect assassin is dispatched on a mission across Europe, tracked by a ruthless intelligence agent and her operatives.


MEDIA INFO

Video
ID                               : 1
Format                           : AVC
Format/Info                      : Advanced Video Codec
Codec ID/Info                    : Advanced Video Coding
Duration                         : 1h 50mn
Bit rate mode                    : Variable
Bit rate                         : 965 Kbps
Maximum bit rate                 : 6 553 Kbps
Width                            : 720 pixels
Height                           : 480 pixels
Display aspect ratio             : 16:9
Frame rate mode                  : Constant
Frame rate                       : 25.000 fps
Standard                         : PAL
Stream size                      : 766 MiB (92%)
Language                         : English

Audio
ID                               : 2
Format                           : AAC
Format/Info                      : Advanced Audio Codec
Format profile                   : HE-AAC
Duration                         : 1h 50mn
Bit rate mode                    : Variable
Bit rate                         : 79.8 Kbps
Maximum bit rate                 : 96.6 Kbps
Channel(s)                       : 6 channels
Channel positions                : Front: L C R, Side: L R, LFE
Sampling rate                    : 48.0 KHz / 24.0 KHz
Compression mode                 : Lossy
Stream size                      : 63.3 MiB (8%)
Language                         : English
